/* XPM */
static char * mozart_xpm[] = {
"80 34 40 1",
" 	c None",
".	c #FFFFFF",
"+	c #FFFFCC",
"@	c #FFFF99",
"#	c #FFCCFF",
"$	c #FFCCCC",
"%	c #FFCC99",
"&	c #FFCC66",
"*	c #FFCC33",
"=	c #FF9999",
"-	c #FF9966",
";	c #FF9933",
">	c #CCCCFF",
",	c #CCCCCC",
"'	c #CCCC99",
")	c #CC9933",
"!	c #CC6633",
"~	c #99CCCC",
"{	c #9999CC",
"]	c #999999",
"^	c #999966",
"/	c #999933",
"(	c #996633",
"_	c #993333",
":	c #669999",
"<	c #666699",
"[	c #666666",
"}	c #666633",
"|	c #666600",
"1	c #663333",
"2	c #663300",
"3	c #333366",
"4	c #333333",
"5	c #333300",
"6	c #330033",
"7	c #330000",
"8	c #003333",
"9	c #003300",
"0	c #000033",
"a	c #000000",
"                                                                                ",
"                                     ;;;                                        ",
"                                   =;&-;                                        ",
"                                  ;;  ;;;                                       ",
"                                ;;    %-;                                       ",
"                              ;;      ;;;-                                      ",
"                            $;%       ;;;;$                                     ",
"                           ;;;-  ;;   ;;;;;                                     ",
"                         ---;;;+;;;   ;;;;;;                                    ",
"                       -;7a1;;;;;-;   ;;;;;-                                 ,  ",
"                     -;aaaaaa4-;-;;   ;-- &;;                              aaa  ",
"                    ;;aaaaaaaa5;-;-   ;+   -;$                             aaa  ",
"                  --;aaa;;;aaaa;;;;       %;;;                             aaa  ",
"aaa4>aaaa  aaaa  &;;;aaa;;;;aaaa;;-      ;aa;;;        aaaaaa,   ]aa4aa4 aaaaaaa",
"aaa4aaaaaaaaaaaa  ;-;aaa-;--aaaa;;%    ;)aaa4;;       aaaaaaaa[  ]aa4aa4 aaaaaaa",
"aaaaa,aaaaa]aaaa,  ;;aaaa;;;-aaa;;-  ;-aaaaa(;-;     aaa4  aaaa  ]aaaaa4 aaaaaaa",
"aaaa   aaa   aaa[  -;aaaa;-;;aaa-;;;;aaaaaaa;---      [a    aaa  ]aaaa    ,aaa  ",
"aaaa   aaa   aaa]   --aaaa;;;aaa;-;;-aaa;aaa;;;-;       ,aaaaaa  [aaa     ]aaa  ",
"aaaa   aaa   aaa]   ;;7aaaa5aaa;--;;-a;-;aaa;;;;;-    aaaaaaaaa  [aaa     ]aaa  ",
"aaaa   aaa   aaa]    ;;aaaaaaa!-;;--;;;-;aaa;;-;;;   aaaa   aaa  <aaa     {aaa  ",
"aaaa   aaa   aaa]    +;;;aaaa%     -;-;;-aaa;;;;;;;  aaa    aaa  <aaa     {aaa  ",
"aaaa   aaa   aaa]     ;;--;-        ;;;;-aaa;;aaa-;  aaa   aaaa  <aaa     ,aaa  ",
"aaaa   aaa   aaa]      ;;-;&  -;-    ;;--aaaaaaaa;;  aaaaaaaaaa  <aaa      aaaaa",
"aaaa   aaa   aaa]      ;;;-   ;;--    ;;-aaaaaa;;    ]aaaaa aaa  <aaa      aaaaa",
"                        ;;;   ;;;-    -;}aaaa5;+                                ",
"                        &--   --;;;   ;;;aaa;*                                  ",
"                         --    ;-;-   ;;;;;;                                    ",
"                          -;    ;-;   --;;                                      ",
"                          ;;     -%  +;;                                        ",
"                           -;        ;%                                         ",
"                           ;;;     &;                                           ",
"                            ;;;;;;-                                             ",
"                            +;;-;                                               ",
"                             ;;&                                                "};
