#define step_width 28
#define step_height 18
static unsigned char step_bits[] = {
   0x00, 0x00, 0x00, 0x00, 0x00, 0x00, 0x00, 0x00, 0x00, 0x00, 0x00, 0x00,
   0x00, 0x00, 0x00, 0x00, 0x00, 0x20, 0x00, 0x00, 0x00, 0x60, 0x00, 0x00,
   0x00, 0xe0, 0xc0, 0x01, 0xf8, 0xff, 0xe1, 0x03, 0xf8, 0xff, 0xe3, 0x03,
   0xf8, 0xff, 0xe1, 0x03, 0x00, 0xe0, 0xc0, 0x01, 0x00, 0x60, 0x00, 0x00,
   0x00, 0x20, 0x00, 0x00, 0x00, 0x00, 0x00, 0x00, 0x00, 0x00, 0x00, 0x00,
   0x00, 0x00, 0x00, 0x00, 0x00, 0x00, 0x00, 0x00, 0x00, 0x00, 0x00, 0x00};
