/*
 * Programming Systems Lab, DFKI Saarbruecken,
 * Stuhlsatzenhausweg 3, D-66123 Saarbruecken, Phone (+49) 681 302-5312
 * Author: Christian Schulte
 * Email: schulte@dfki.uni-sb.de
 * Last modified: $Date$ by $Author$
 * Version: $Revision$
 */

#define micro-gray_width 4
#define micro-gray_height 4
#define micro-gray_x_hot 0
#define micro-gray_y_hot 0
static unsigned char micro-gray_bits[] = {
   0x01, 0x02, 0x08, 0x04};
