#define stop_width 16
#define stop_height 16
static char stop_bits[] = {
   0x00, 0x00, 0x00, 0x00, 0x00, 0x00, 0xf8, 0x3f, 0xf8, 0x3f, 0x18, 0x30,
   0x18, 0x30, 0x18, 0x30, 0x18, 0x30, 0x18, 0x30, 0x18, 0x30, 0x18, 0x30,
   0xf8, 0x3f, 0xf8, 0x3f, 0x00, 0x00, 0x00, 0x00};
