#define term_width 28
#define term_height 18
static unsigned char term_bits[] = {
   0x00, 0x00, 0x00, 0x00, 0x00, 0x00, 0x00, 0x00, 0x00, 0x00, 0x00, 0x00,
   0x00, 0x07, 0x0e, 0x00, 0x00, 0x0f, 0x0f, 0x00, 0x00, 0x9e, 0x07, 0x00,
   0x00, 0xfc, 0x03, 0x00, 0x00, 0xf8, 0x01, 0x00, 0x00, 0xf0, 0x00, 0x00,
   0x00, 0xf8, 0x01, 0x00, 0x00, 0xfc, 0x03, 0x00, 0x00, 0x9e, 0x07, 0x00,
   0x00, 0x0f, 0x0f, 0x00, 0x00, 0x07, 0x0e, 0x00, 0x00, 0x00, 0x00, 0x00,
   0x00, 0x00, 0x00, 0x00, 0x00, 0x00, 0x00, 0x00, 0x00, 0x00, 0x00, 0x00};
