#define lift_width 30
#define lift_height 45
static unsigned char lift_bits[] = {
   0xff, 0xff, 0xff, 0x3f, 0x01, 0x00, 0x00, 0x20, 0x01, 0x00, 0x00, 0x20,
   0x01, 0x00, 0x00, 0x20, 0x01, 0x00, 0x00, 0x20, 0x01, 0x00, 0x00, 0x20,
   0x01, 0x00, 0x00, 0x20, 0x01, 0x00, 0x00, 0x20, 0x01, 0x00, 0x00, 0x20,
   0x01, 0x00, 0x00, 0x20, 0x01, 0x00, 0x00, 0x20, 0x01, 0x00, 0x00, 0x20,
   0x01, 0x00, 0x00, 0x20, 0x01, 0x00, 0x00, 0x20, 0x01, 0x00, 0x00, 0x20,
   0x01, 0x00, 0x00, 0x20, 0x01, 0xc0, 0x01, 0x20, 0x01, 0xe0, 0x03, 0x20,
   0x01, 0xf0, 0x07, 0x20, 0x01, 0xf0, 0x07, 0x20, 0x81, 0xf3, 0x07, 0x20,
   0xc1, 0xe7, 0x03, 0x20, 0xc1, 0xc7, 0x01, 0x20, 0xe1, 0x8f, 0x00, 0x20,
   0xe1, 0x8f, 0x00, 0x20, 0x61, 0x8d, 0x00, 0x20, 0x21, 0x89, 0x00, 0x20,
   0x21, 0x89, 0x00, 0x20, 0x01, 0xc1, 0x01, 0x20, 0x81, 0xc1, 0x01, 0x20,
   0x81, 0xa3, 0x02, 0x20, 0x41, 0xa3, 0x02, 0x20, 0x21, 0x95, 0x04, 0x20,
   0x21, 0x95, 0x04, 0x20, 0x11, 0x89, 0x08, 0x20, 0x11, 0x89, 0x08, 0x20,
   0x01, 0x81, 0x01, 0x20, 0x01, 0x43, 0x01, 0x20, 0x81, 0x42, 0x01, 0x24,
   0x81, 0x42, 0xc2, 0x28, 0x81, 0x42, 0xf2, 0x2f, 0x81, 0x24, 0xe2, 0x2f,
   0x41, 0x24, 0x84, 0x24, 0x61, 0x3c, 0x5c, 0x25, 0xff, 0xff, 0xff, 0x3f};
