#define term_width 28
#define term_height 18
static unsigned char term_bits[] = {
   0x00, 0x00, 0x00, 0x00, 0x00, 0x00, 0x00, 0x00, 0x00, 0x00, 0x00, 0x00,
   0x00, 0x00, 0x00, 0x00, 0x00, 0x0e, 0x1c, 0x00, 0x00, 0x1e, 0x1e, 0x00,
   0x00, 0x3c, 0x0f, 0x00, 0x00, 0xf8, 0x07, 0x00, 0x00, 0xf0, 0x03, 0x00,
   0x00, 0xe0, 0x01, 0x00, 0x00, 0xf0, 0x03, 0x00, 0x00, 0xf8, 0x07, 0x00,
   0x00, 0x3c, 0x0f, 0x00, 0x00, 0x1e, 0x1e, 0x00, 0x00, 0x0e, 0x1c, 0x00,
   0x00, 0x00, 0x00, 0x00, 0x00, 0x00, 0x00, 0x00, 0x00, 0x00, 0x00, 0x00};
