#define step_width 28
#define step_height 18
static unsigned char step_bits[] = {
   0x00, 0x00, 0x00, 0x00, 0x00, 0x00, 0x00, 0x00, 0x00, 0x00, 0x00, 0x00,
   0x00, 0x00, 0x00, 0x00, 0x00, 0x00, 0x00, 0x00, 0x00, 0x40, 0x00, 0x00,
   0x00, 0xc0, 0x00, 0x00, 0x00, 0xc0, 0x81, 0x03, 0xf0, 0xff, 0xc3, 0x07,
   0xf0, 0xff, 0xc7, 0x07, 0xf0, 0xff, 0xc3, 0x07, 0x00, 0xc0, 0x81, 0x03,
   0x00, 0xc0, 0x00, 0x00, 0x00, 0x40, 0x00, 0x00, 0x00, 0x00, 0x00, 0x00,
   0x00, 0x00, 0x00, 0x00, 0x00, 0x00, 0x00, 0x00, 0x00, 0x00, 0x00, 0x00};
