#define stop_width 28
#define stop_height 18
static unsigned char stop_bits[] = {
   0x00, 0x00, 0x00, 0x00, 0x00, 0x00, 0x00, 0x00, 0x00, 0x00, 0x00, 0x00,
   0x00, 0x00, 0x00, 0x00, 0x00, 0x1c, 0x07, 0x00, 0x00, 0x1c, 0x07, 0x00,
   0x00, 0x1c, 0x07, 0x00, 0x00, 0x1c, 0x07, 0x00, 0x00, 0x1c, 0x07, 0x00,
   0x00, 0x1c, 0x07, 0x00, 0x00, 0x1c, 0x07, 0x00, 0x00, 0x1c, 0x07, 0x00,
   0x00, 0x1c, 0x07, 0x00, 0x00, 0x00, 0x00, 0x00, 0x00, 0x00, 0x00, 0x00,
   0x00, 0x00, 0x00, 0x00, 0x00, 0x00, 0x00, 0x00, 0x00, 0x00, 0x00, 0x00};
