#define liftUp_width 30
#define liftUp_height 45
static unsigned char liftUp_bits[] = {
   0xff, 0xff, 0xff, 0x3f, 0x01, 0x00, 0x00, 0x20, 0x01, 0x00, 0x00, 0x20,
   0x01, 0x40, 0x00, 0x20, 0x01, 0xe0, 0x00, 0x20, 0x01, 0xe0, 0x00, 0x20,
   0x01, 0xf0, 0x01, 0x20, 0x01, 0xf0, 0x01, 0x20, 0x01, 0xf8, 0x03, 0x20,
   0x01, 0xf8, 0x03, 0x20, 0x01, 0xfc, 0x07, 0x20, 0x01, 0xfc, 0x07, 0x20,
   0x01, 0xfe, 0x0f, 0x20, 0x01, 0x00, 0x00, 0x20, 0x01, 0x00, 0x00, 0x20,
   0x01, 0x00, 0x00, 0x20, 0x01, 0x00, 0x00, 0x20, 0x01, 0x00, 0x00, 0x20,
   0x01, 0x00, 0x00, 0x20, 0x01, 0x00, 0x00, 0x20, 0x01, 0xe0, 0x00, 0x20,
   0x01, 0xf0, 0x01, 0x20, 0x01, 0xf8, 0x03, 0x20, 0x01, 0xf0, 0x01, 0x20,
   0x01, 0xf0, 0x01, 0x20, 0x01, 0xf0, 0x01, 0x20, 0x01, 0xe0, 0x00, 0x20,
   0x01, 0x40, 0x00, 0x20, 0x01, 0x40, 0x00, 0x20, 0x01, 0x60, 0x00, 0x20,
   0x01, 0xe0, 0x00, 0x20, 0x01, 0x50, 0x01, 0x20, 0x01, 0x48, 0x02, 0x20,
   0x01, 0x48, 0x02, 0x20, 0x01, 0x4c, 0x34, 0x20, 0x01, 0x4c, 0x48, 0x20,
   0x01, 0x4c, 0x18, 0x20, 0x01, 0xac, 0x30, 0x20, 0x01, 0xac, 0x30, 0x20,
   0x01, 0x10, 0x61, 0x20, 0x01, 0x10, 0x61, 0x20, 0x01, 0x08, 0xc2, 0x20,
   0x01, 0x08, 0xc2, 0x20, 0x01, 0x06, 0x8c, 0x20, 0xff, 0xff, 0xff, 0x3f};
