#define downE_width 16
#define downE_height 16
static unsigned char downE_bits[] = {
   0xff, 0xff, 0x01, 0x80, 0x02, 0x40, 0x02, 0x40, 0x04, 0x20, 0x04, 0x20,
   0x08, 0x10, 0x08, 0x10, 0x10, 0x08, 0x10, 0x08, 0x20, 0x04, 0x20, 0x04,
   0x40, 0x02, 0x40, 0x02, 0x80, 0x01, 0x80, 0x01};
