#define liftDown_width 30
#define liftDown_height 45
static unsigned char liftDown_bits[] = {
   0xff, 0xff, 0xff, 0x3f, 0x01, 0x00, 0x00, 0x20, 0x01, 0x00, 0x00, 0x20,
   0x01, 0xfe, 0x0f, 0x20, 0x01, 0xfc, 0x07, 0x20, 0x01, 0xfc, 0x07, 0x20,
   0x01, 0xf8, 0x03, 0x20, 0x01, 0xf8, 0x03, 0x20, 0x01, 0xf0, 0x01, 0x20,
   0x01, 0xf0, 0x01, 0x20, 0x01, 0xe0, 0x00, 0x20, 0x01, 0x40, 0x00, 0x20,
   0x01, 0x40, 0x00, 0x20, 0x01, 0x00, 0x00, 0x20, 0x01, 0x00, 0x00, 0x20,
   0x01, 0x00, 0x00, 0x20, 0x01, 0x00, 0x00, 0x20, 0x01, 0x00, 0x00, 0x20,
   0x01, 0x00, 0x00, 0x20, 0x01, 0x00, 0x00, 0x20, 0x01, 0x00, 0x00, 0x20,
   0x01, 0xe0, 0x00, 0x20, 0x01, 0xf0, 0x01, 0x20, 0x01, 0xf0, 0x01, 0x20,
   0x01, 0xf0, 0x01, 0x20, 0x01, 0xf0, 0x01, 0x20, 0x01, 0xe0, 0x00, 0x20,
   0x01, 0x40, 0x00, 0x20, 0x01, 0x40, 0x00, 0x20, 0x01, 0x40, 0x00, 0x20,
   0x01, 0xe0, 0x00, 0x20, 0x01, 0x50, 0x01, 0x20, 0x01, 0x50, 0x21, 0x20,
   0x01, 0x48, 0x71, 0x20, 0x01, 0x44, 0x72, 0x20, 0x01, 0x44, 0x22, 0x20,
   0x01, 0x40, 0x7c, 0x20, 0x01, 0xa0, 0xa0, 0x20, 0x01, 0xa0, 0xa0, 0x20,
   0x01, 0x10, 0x21, 0x21, 0x01, 0x10, 0x21, 0x20, 0x01, 0x08, 0x52, 0x20,
   0x01, 0x08, 0x52, 0x20, 0x01, 0x06, 0x8c, 0x21, 0xff, 0xff, 0xff, 0x3f};
