#define lines-rl_width 25
#define lines-rl_height 25
static unsigned char lines-rl_bits[] = {
  0x88, 0x88, 0x88, 0x00, 0x11, 0x11, 0x11, 0x01, 0x22, 0x22, 0x22, 0x00,
  0x44, 0x44, 0x44, 0x00, 0x88, 0x88, 0x88, 0x00, 0x11, 0x11, 0x11, 0x01,
  0x22, 0x22, 0x22, 0x00, 0x44, 0x44, 0x44, 0x00, 0x88, 0x88, 0x88, 0x00,
  0x11, 0x11, 0x11, 0x01, 0x22, 0x22, 0x22, 0x00, 0x44, 0x44, 0x44, 0x00,
  0x88, 0x88, 0x88, 0x00, 0x11, 0x11, 0x11, 0x01, 0x22, 0x22, 0x22, 0x00,
  0x44, 0x44, 0x44, 0x00, 0x88, 0x88, 0x88, 0x00, 0x11, 0x11, 0x11, 0x01,
  0x22, 0x22, 0x22, 0x00, 0x44, 0x44, 0x44, 0x00, 0x88, 0x88, 0x88, 0x00,
  0x11, 0x11, 0x11, 0x01, 0x22, 0x22, 0x22, 0x00, 0x44, 0x44, 0x44, 0x00,
  0x88, 0x88, 0x88, 0x00, };
