#define title_width 216
#define title_height 135
static char title_bits[] = {
 0x00,0x00,0x00,0x00,0x00,0x00,0x00,0x00,0x00,0x00,0x00,0x00,0x00,0x00,0x00,
 0x00,0x00,0x00,0x00,0x00,0x00,0x00,0x00,0x00,0x00,0x00,0x00,0x00,0x00,0x00,
 0x00,0x00,0x00,0x00,0x00,0x00,0x00,0x00,0x00,0x00,0x00,0x00,0x00,0x00,0x00,
 0x00,0x00,0x00,0x00,0x00,0x00,0x00,0x00,0x00,0x01,0x00,0x00,0x00,0x0e,0x00,
 0x00,0x00,0x00,0x00,0x00,0x00,0x00,0x00,0x60,0x00,0x40,0x29,0x84,0x52,0x08,
 0xa5,0x10,0x4a,0x21,0x01,0x00,0x29,0x85,0x0b,0xa5,0x0e,0x00,0x94,0x95,0x95,
 0x52,0x28,0xa5,0x50,0x4a,0x61,0x00,0x90,0x4e,0x39,0x8d,0x52,0x0a,0xa5,0x14,
 0x4a,0x01,0x00,0x01,0x00,0x02,0x00,0x0e,0x00,0x00,0x01,0x01,0x00,0x00,0x00,
 0x00,0x00,0x70,0x00,0x58,0x52,0x4e,0xb7,0x94,0x96,0xd6,0xd2,0x52,0x01,0x00,
 0x81,0x00,0x07,0x00,0x0e,0x00,0x40,0x41,0x01,0x00,0x00,0x00,0x00,0x00,0x68,
 0x00,0x90,0x9a,0x0d,0x98,0x52,0x0a,0xa5,0x14,0x0a,0x01,0x00,0x85,0x4a,0xa0,
 0xa4,0x0e,0x00,0x4a,0x45,0xa1,0x49,0x48,0x85,0x60,0x52,0x61,0x00,0xa8,0x5b,
 0xc8,0x4a,0xa5,0x50,0x4a,0xa1,0xd4,0x01,0x00,0x01,0x10,0x08,0x02,0x0e,0x00,
 0x00,0x11,0x05,0x00,0x00,0x10,0x08,0x04,0x74,0x00,0x20,0x74,0x4d,0x53,0x94,
 0x96,0xd6,0xd2,0x12,0x01,0x00,0xa9,0x30,0x03,0x08,0x0f,0x00,0x54,0x89,0x81,
 0x82,0x02,0x85,0x40,0x42,0x61,0x00,0x40,0xef,0x59,0xbf,0x52,0x0a,0xa5,0x14,
 0xaa,0x01,0x00,0x35,0x11,0x20,0x10,0x0e,0x00,0x92,0x50,0x48,0x01,0x83,0x48,
 0x02,0xa1,0x70,0x00,0x80,0x99,0x8a,0x48,0x8b,0x66,0xd1,0x2a,0x21,0x01,0x00,
 0xff,0xff,0xff,0xff,0x0f,0x00,0xff,0xff,0xff,0xff,0xff,0xff,0xff,0xff,0x7f,
 0x00,0xf8,0xff,0xff,0xff,0xff,0xff,0xff,0xff,0xff,0x01,0x00,0x01,0x20,0x80,
 0x80,0x00,0x00,0x00,0x04,0x81,0x00,0x00,0x80,0x96,0xd6,0x12,0x4a,0x55,0x55,
 0x52,0x53,0x18,0x00,0x00,0x00,0x00,0x00,0x00,0x01,0x85,0x28,0x10,0x10,0x00,
 0x80,0x40,0x80,0x00,0x00,0x80,0xca,0x08,0xaa,0xac,0xaa,0x4a,0x89,0x84,0x32,
 0x00,0x00,0x00,0x00,0x00,0x00,0x01,0x02,0x14,0x08,0x81,0x00,0x00,0x80,0x80,
 0x00,0x00,0x80,0x69,0xab,0xd2,0x9a,0x25,0x45,0x44,0x25,0x15,0x00,0x00,0x00,
 0x00,0x00,0x00,0x11,0x49,0x50,0x40,0x50,0x08,0x88,0x24,0x81,0x00,0x00,0x80,
 0x86,0x48,0x1d,0x22,0x55,0x1a,0x55,0x48,0x38,0x00,0x00,0x00,0x00,0x00,0x00,
 0x45,0x02,0x11,0x21,0x00,0x04,0x05,0x01,0xa0,0x00,0x00,0x80,0xa8,0x12,0xdc,
 0x54,0x48,0xa1,0x89,0xaa,0x12,0x00,0x00,0x00,0x00,0x00,0x00,0x01,0x33,0x34,
 0x00,0x00,0x21,0x20,0x80,0x84,0x00,0x00,0x80,0xa5,0x2c,0xb5,0x4e,0xa5,0x4a,
 0xb2,0x90,0x34,0x00,0x00,0x00,0x00,0x00,0x00,0x09,0x80,0x40,0x00,0x00,0x20,
 0x04,0x04,0xc1,0x00,0x00,0x80,0x96,0x48,0x4d,0x2a,0x14,0xa9,0xaa,0xaa,0x18,
 0x00,0x00,0x00,0x00,0x00,0x00,0x41,0x28,0x0a,0x05,0x49,0x02,0x41,0x10,0x88,
 0x00,0x00,0x80,0x52,0x2a,0xd4,0x54,0xd9,0x45,0x09,0x85,0x32,0x00,0x00,0x00,
 0x00,0x00,0x00,0xff,0xff,0xff,0xff,0x0f,0x00,0xff,0xff,0xff,0xff,0xff,0xff,
 0xff,0xff,0x7f,0x00,0x00,0xc0,0xff,0xff,0xff,0xff,0xff,0xff,0xff,0xff,0x1f,
 0x11,0x00,0x00,0x00,0x08,0x00,0x00,0x01,0x00,0x00,0x00,0x00,0x00,0x00,0x40,
 0x00,0x00,0x40,0x00,0x00,0x00,0x00,0x00,0x00,0x00,0x00,0x18,0x21,0x02,0x32,
 0x30,0x08,0x00,0x02,0x80,0x20,0x08,0x00,0x20,0x00,0x20,0x50,0x00,0x00,0x40,
 0x60,0xc0,0x40,0x00,0x00,0x00,0x00,0x00,0x18,0x01,0x92,0xa0,0x64,0x08,0x00,
 0x90,0x02,0x21,0x90,0x02,0x00,0x05,0x09,0x41,0x00,0x00,0x40,0x4a,0x05,0x44,
 0x89,0x26,0xd5,0xaa,0x59,0x1c,0x89,0x22,0x28,0x20,0x0a,0x00,0x00,0x40,0x40,
 0x04,0x90,0x44,0x00,0x00,0x60,0x00,0x00,0x40,0xf0,0x50,0x51,0x00,0x00,0x00,
 0x00,0x00,0x18,0x01,0x12,0x60,0xaa,0x0c,0x00,0x02,0x08,0x04,0x20,0x00,0x20,
 0x08,0x00,0x40,0x00,0x00,0x40,0x50,0x23,0x42,0xa9,0x14,0x4c,0x22,0x15,0x1a,
 0x21,0x01,0x20,0x50,0x08,0x00,0x00,0x01,0x88,0x80,0x02,0x49,0x50,0x00,0x40,
 0x00,0x00,0x40,0x08,0x21,0x48,0xa0,0x10,0x48,0x20,0x14,0x1a,0x11,0x20,0x80,
 0x06,0x0a,0x00,0x42,0x14,0x02,0x24,0x40,0x20,0x00,0xa0,0x64,0x00,0x00,0x40,
 0x00,0x0a,0x03,0x05,0x00,0x02,0x01,0x80,0x18,0x85,0x92,0x08,0x80,0x08,0x00,
 0x10,0x80,0x20,0x01,0x08,0x02,0x04,0x01,0x40,0x00,0x00,0x40,0x4a,0x20,0x50,
 0x10,0x49,0x20,0x14,0x02,0x19,0xff,0xff,0xff,0xff,0x0f,0x00,0xff,0xff,0xff,
 0xff,0xff,0xff,0xff,0xff,0x7f,0x00,0x00,0xc0,0xff,0xff,0xff,0xff,0xff,0xff,
 0xff,0xff,0x1f,0x01,0x13,0xa5,0x50,0x09,0x00,0x14,0x00,0xaa,0x2c,0x12,0x25,
 0x40,0x02,0x62,0x00,0x00,0x40,0xc0,0xe8,0x28,0x41,0x20,0x40,0x20,0x14,0x12,
 0x09,0x42,0x30,0x40,0x08,0x00,0x80,0xc8,0x20,0xa1,0x00,0x00,0x04,0x90,0x40,
 0x00,0x00,0x40,0x94,0x60,0x08,0x28,0x00,0x00,0x02,0x01,0x10,0x41,0x06,0x22,
 0x54,0x08,0x00,0x0a,0x12,0xa4,0x20,0x24,0x90,0x92,0x44,0x40,0x00,0x00,0x40,
 0x80,0x48,0x0a,0x02,0x09,0x0a,0x80,0x40,0x10,0x11,0x03,0x31,0x21,0x09,0x00,
 0x40,0x00,0x10,0x08,0x80,0x00,0x00,0x00,0x50,0x00,0x00,0x40,0x84,0x40,0x99,
 0x04,0x40,0x20,0x20,0x08,0x14,0x21,0x1a,0x68,0xb2,0x0c,0x00,0x02,0x00,0x28,
 0x28,0x40,0x00,0x88,0x00,0x44,0x00,0x00,0x40,0x82,0x42,0x4c,0x00,0x12,0x14,
 0x88,0x00,0x18,0x11,0x21,0x02,0x09,0x08,0x00,0x40,0x22,0x88,0x00,0x02,0x48,
 0x20,0x04,0x48,0x00,0x00,0x40,0x10,0x49,0x00,0xa1,0x40,0x01,0x02,0x48,0x11,
 0x05,0x12,0x01,0x00,0x09,0x00,0x00,0x00,0x00,0x89,0x08,0x00,0x02,0x22,0x61,
 0x00,0x00,0x40,0x20,0x00,0x00,0x08,0x04,0x20,0x10,0x00,0x10,0xff,0xff,0xff,
 0xff,0x0f,0x00,0xff,0xff,0xff,0xff,0xff,0xff,0xff,0xff,0x7f,0x00,0x00,0xc0,
 0xff,0xff,0xff,0xff,0xff,0xff,0xff,0xff,0x1f,0x81,0x00,0x00,0x00,0x08,0x00,
 0x08,0x00,0x40,0x00,0x00,0x10,0x00,0x00,0x40,0x00,0x00,0x40,0x00,0x02,0x48,
 0x00,0x00,0x00,0x00,0x28,0x19,0x01,0x4a,0xa9,0x50,0x0d,0x00,0x44,0x49,0x0a,
 0x39,0x25,0x40,0x0a,0xa5,0x54,0x00,0x00,0x40,0xa9,0x71,0x09,0x0a,0x25,0xa1,
 0x94,0x02,0x10,0x09,0x02,0x02,0x48,0x08,0x00,0x00,0x80,0x88,0x08,0x80,0x22,
 0x40,0x00,0x40,0x00,0x00,0x40,0x80,0x40,0x2c,0x00,0x00,0x08,0x00,0x40,0x11,
 0x41,0x02,0x51,0x60,0x0a,0x00,0x92,0x14,0x3c,0x40,0x10,0x08,0x09,0x08,0x40,
 0x00,0x00,0x40,0x82,0xc4,0x88,0x20,0x09,0x04,0x21,0x08,0x18,0x21,0x43,0x10,
 0x00,0x0c,0x00,0x20,0x01,0x22,0x80,0x04,0x00,0x00,0x20,0x40,0x00,0x00,0x40,
 0x80,0x48,0xa8,0x04,0x00,0x10,0x12,0x09,0x12,0x05,0x11,0x84,0x76,0x0a,0x00,
 0x82,0x41,0x30,0x28,0x90,0x24,0x51,0x88,0x40,0x00,0x00,0x40,0x62,0x42,0x47,
 0x8c,0x08,0x84,0x80,0x00,0x10,0x01,0x92,0x00,0x40,0x08,0x00,0x40,0x04,0x04,
 0x00,0x00,0x00,0x00,0x02,0x62,0x00,0x00,0x40,0x88,0x00,0x08,0x11,0x22,0x40,
 0x00,0x10,0x10,0x81,0x20,0xa2,0x20,0x08,0x00,0x00,0x11,0x80,0x02,0x28,0xa0,
 0x04,0xa0,0x40,0x00,0x00,0x40,0x00,0x42,0x02,0x44,0x00,0x01,0x10,0x44,0x12,
 0xff,0xff,0xff,0xff,0x0f,0x00,0xff,0xff,0xff,0xff,0xff,0xff,0xff,0xff,0x7f,
 0x00,0x00,0xc0,0xff,0xff,0xff,0xff,0xff,0xff,0xff,0xff,0x1f,0x11,0x01,0x00,
 0x20,0x08,0x00,0xc0,0x01,0x38,0x10,0x00,0x08,0x00,0x00,0x40,0x00,0x00,0x40,
 0x60,0x40,0x06,0x04,0x08,0x00,0x02,0x00,0x10,0x45,0x86,0x29,0x59,0x09,0x00,
 0x14,0x28,0x0a,0xac,0x90,0x42,0x50,0x10,0x54,0x00,0x00,0x40,0x89,0x65,0xa9,
 0x24,0x41,0x09,0x48,0x29,0x14,0x01,0x02,0x40,0x40,0x08,0x00,0x00,0x81,0x28,
 0x20,0x04,0x20,0x00,0x05,0x40,0x00,0x00,0x40,0xc0,0x40,0x08,0x44,0x04,0x24,
 0x01,0x00,0x10,0x81,0x21,0x0c,0x60,0x08,0x00,0xc4,0x11,0x28,0x51,0x20,0x09,
 0x09,0x80,0x64,0x00,0x00,0x40,0x62,0x48,0x06,0x25,0xa0,0x00,0x40,0x12,0x11,
 0x01,0x42,0x40,0x42,0x09,0x00,0x02,0x20,0x30,0x94,0x00,0xa0,0x80,0x00,0x40,
 0x00,0x00,0x40,0x88,0x40,0x0d,0x8c,0x00,0x91,0x90,0x24,0x14,0x29,0x11,0x08,
 0x2a,0x0c,0x00,0x88,0x03,0x18,0x38,0xa4,0x04,0x08,0x84,0x50,0x00,0x00,0x40,
 0x62,0x4b,0xc6,0x04,0x20,0x00,0x00,0x01,0x11,0x81,0x12,0x82,0x00,0x0a,0x00,
 0x40,0x00,0x01,0x00,0x00,0x00,0x02,0x20,0x42,0x00,0x00,0x40,0x20,0x00,0x10,
 0x00,0x0a,0x02,0x0a,0x80,0x10,0x05,0x20,0x21,0x80,0x08,0x00,0x12,0x44,0x40,
 0x84,0x10,0x08,0x10,0x09,0x48,0x00,0x00,0x40,0x10,0x80,0x00,0x91,0x00,0xc8,
 0x40,0x04,0x10,0xff,0xff,0xff,0xff,0x0f,0x00,0xff,0xff,0xff,0xff,0xff,0xff,
 0xff,0xff,0x7f,0x00,0x00,0xc0,0xff,0xff,0xff,0xff,0xff,0xff,0xff,0xff,0x1f,
 0x21,0x05,0x30,0x20,0x0c,0x00,0x80,0x01,0x14,0x00,0x80,0x82,0x04,0x00,0x61,
 0x00,0x00,0x40,0x60,0x50,0x06,0x0c,0x40,0x00,0x00,0x40,0x12,0x11,0x83,0x89,
 0x70,0x0d,0x00,0x40,0x10,0x69,0x39,0x05,0x10,0x00,0x25,0x60,0x00,0x00,0x40,
 0x89,0x60,0x58,0x50,0x10,0x21,0x4a,0x09,0x10,0x05,0x02,0x00,0x48,0x0c,0x00,
 0x02,0xc2,0x38,0x08,0x00,0x01,0x12,0x00,0x62,0x00,0x00,0x40,0xc0,0xc4,0x04,
 0x02,0x00,0x80,0x00,0x10,0x14,0x01,0x02,0xa0,0x60,0x0c,0x00,0x80,0x20,0xac,
 0x10,0x10,0xa0,0x00,0x20,0x60,0x00,0x00,0x40,0x80,0x40,0x28,0x24,0x08,0x00,
 0x02,0x40,0x11,0x09,0x1b,0x08,0x1a,0x0c,0x00,0x00,0x02,0x28,0x80,0x84,0x00,
 0x00,0x8a,0x62,0x00,0x00,0x40,0x88,0x4a,0x49,0x82,0x00,0x49,0x20,0x01,0x18,
 0x01,0x91,0x02,0x72,0x0d,0x00,0x92,0x41,0x51,0x02,0x20,0x48,0x90,0x00,0x60,
 0x00,0x00,0x40,0x62,0x62,0x4e,0x2c,0x20,0x80,0x00,0x88,0x10,0x29,0x02,0x00,
 0x45,0x0c,0x00,0x80,0x18,0x08,0x08,0x00,0x02,0x02,0x20,0x68,0x00,0x00,0x40,
 0x20,0x11,0x42,0x08,0x01,0x0a,0x44,0x22,0x12,0xff,0xff,0xff,0xff,0x0f,0x00,
 0xff,0xff,0xff,0xff,0xff,0xff,0xff,0xff,0x7f,0x00,0x00,0xc0,0xff,0xff,0xff,
 0xff,0xff,0xff,0xff,0xff,0x1f,0x11,0x08,0x00,0x00,0x08,0x00,0x00,0x80,0x00,
 0x00,0x00,0x00,0x00,0x00,0x40,0x00,0x00,0x40,0x00,0x00,0x00,0x00,0x80,0x08,
 0x00,0x48,0x11,0x85,0x41,0xb4,0xa6,0x08,0x00,0x8a,0x15,0x54,0x59,0x50,0x12,
 0x92,0x04,0x54,0x00,0x00,0x40,0xe9,0xd2,0x4e,0x5e,0x10,0x04,0x24,0x10,0x10,
 0x21,0x06,0x01,0x50,0x08,0x00,0x40,0x01,0x38,0x28,0x04,0x80,0x00,0x22,0x40,
 0x00,0x00,0x40,0xa0,0x60,0x0a,0x00,0x40,0x21,0x08,0x01,0x12,0x01,0x41,0x20,
 0x25,0x09,0x00,0x82,0x09,0x90,0x10,0x10,0x10,0x02,0x08,0x50,0x00,0x00,0x40,
 0x64,0x40,0x0f,0x08,0x40,0x14,0x20,0x00,0x14,0x45,0x12,0x30,0x40,0x08,0x00,
 0x00,0x41,0x2c,0x44,0x20,0x41,0x00,0x00,0x40,0x00,0x00,0x40,0x80,0x40,0x48,
 0x16,0x09,0x01,0x02,0x00,0x10,0x01,0x12,0x42,0x52,0x0c,0x00,0xa0,0x10,0x38,
 0x09,0x12,0x24,0x04,0x21,0x65,0x00,0x00,0x40,0x80,0x6a,0x6c,0x40,0x00,0x20,
 0x80,0x92,0x18,0x01,0x53,0x00,0x32,0x0a,0x00,0x84,0x05,0x91,0x38,0x01,0x00,
 0x11,0x08,0x48,0x00,0x00,0x40,0xf2,0x42,0x47,0x2c,0x10,0x00,0x08,0x08,0x12,
 0x11,0x08,0x01,0x44,0x08,0x00,0x44,0x12,0x42,0x04,0x92,0x14,0x80,0x00,0x42,
 0x00,0x00,0x40,0x00,0x20,0x48,0x80,0x20,0x28,0x04,0x50,0x10,0xff,0xff,0xff,
 0xff,0x0f,0x00,0xff,0xff,0xff,0xff,0xff,0xff,0xff,0xff,0x7f,0x00,0x00,0xc0,
 0xff,0xff,0xff,0xff,0xff,0xff,0xff,0xff,0x1f,0x45,0x4b,0x6b,0x69,0x11,0xca,
 0xaa,0x45,0xa4,0x00,0x00,0x80,0x10,0x10,0x08,0x00,0x05,0x40,0x84,0x04,0x00,
 0x04,0x80,0x00,0x40,0x09,0x10,0x55,0x25,0xb4,0xaa,0xa4,0x14,0x14,0x98,0xc9,
 0x00,0x00,0x80,0xc2,0x82,0x44,0x09,0x05,0x40,0x61,0xc0,0x96,0x0c,0x4a,0x04,
 0x00,0x00,0x19,0x35,0x93,0x54,0x64,0xa5,0x54,0x51,0x5a,0x9a,0x00,0x00,0x80,
 0x00,0x41,0x49,0x00,0x05,0x40,0x84,0x48,0x08,0x05,0x10,0x01,0x00,0x04,0x14,
 0x45,0x44,0xa5,0x76,0x4a,0xc1,0x8a,0x41,0xa4,0x00,0x00,0x80,0xc2,0xc8,0x80,
 0x48,0x05,0x40,0x60,0x62,0x0f,0x0c,0x02,0x80,0x40,0x21,0x11,0x49,0x8b,0x94,
 0xaa,0x28,0xaa,0x54,0x9a,0xd9,0x00,0x00,0x80,0x08,0x43,0x15,0x02,0x05,0x40,
 0x88,0x41,0x08,0x02,0x04,0x20,0x00,0x00,0x10,0x8b,0x50,0xb2,0x32,0x91,0x52,
 0x91,0x24,0xaa,0x00,0x00,0x80,0xa0,0x65,0x81,0x10,0x05,0x40,0x81,0x52,0x4c,
 0x90,0x20,0x09,0x49,0x84,0x14,0xa9,0x0a,0x83,0x14,0x49,0x2a,0xa9,0x42,0xa4,
 0x00,0x00,0x80,0x00,0x04,0x00,0x00,0x05,0x40,0x52,0x28,0x10,0xa0,0x10,0x00,
 0x20,0x90,0x12,0x0b,0xa5,0x14,0x51,0x12,0xcd,0x22,0x94,0x95,0x00,0x00,0x80,
 0x04,0x12,0x84,0x24,0x05,0x40,0x00,0x00,0x00,0x0a,0x04,0x48,0x08,0x08,0x10,
 0xff,0xff,0xff,0xff,0xff,0xff,0xff,0xff,0xff,0x00,0x00,0x80,0xff,0xff,0xff,
 0xff,0x07,0xc0,0xff,0xff,0xff,0xff,0xff,0xff,0xff,0xff,0x1f,0x00,0x00,0x00,
 0x00,0x00,0x00,0x00,0x00,0x00,0x00,0x00,0x00,0x02,0x80,0x68,0x00,0x00,0x40,
 0x28,0x85,0x08,0x40,0x42,0x05,0x05,0x40,0x19,0x00,0x00,0x00,0x00,0x00,0x00,
 0x80,0x81,0x28,0x08,0x00,0x00,0x00,0x00,0x60,0x00,0x00,0x40,0x64,0x65,0x0d,
 0x00,0xa1,0x04,0x02,0x20,0x18,0x00,0x00,0x00,0x00,0x00,0x00,0x52,0x25,0x2a,
 0x29,0x50,0x53,0x20,0x29,0x72,0x00,0x00,0x40,0x40,0x50,0x88,0x10,0x08,0xa8,
 0x20,0x04,0x1a,0x00,0x00,0x00,0x00,0x00,0x00,0x40,0x01,0x68,0x80,0x04,0x20,
 0x45,0x80,0x60,0x00,0x00,0x40,0x5a,0x43,0x08,0x48,0xc0,0x02,0x00,0x40,0x18,
 0x00,0x00,0x00,0x00,0x00,0x00,0x84,0x43,0x29,0x14,0x80,0x0a,0x10,0x20,0x74,
 0x00,0x00,0x40,0x60,0x68,0xad,0x24,0x11,0x20,0x4a,0x02,0x18,0x00,0x00,0x00,
 0x00,0x00,0x00,0x02,0x84,0x20,0x09,0x30,0x09,0x08,0x40,0x6a,0x00,0x00,0x40,
 0x85,0x28,0x90,0x88,0x50,0x4a,0x85,0x80,0x18,0x00,0x00,0x00,0x00,0x00,0x00,
 0x40,0x00,0x89,0x40,0x03,0x82,0x00,0x11,0x60,0x00,0x00,0x40,0x00,0x82,0x04,
 0x00,0x00,0x00,0x08,0x15,0x18,0x00,0x00,0x00,0x00,0x00,0x00,0x12,0x21,0x10,
 0x02,0x48,0x11,0x10,0x00,0x62,0x00,0x00,0x40,0x44,0x10,0x00,0x51,0xa6,0x14,
 0x22,0x40,0x1d,0x00,0x00,0x00,0x00,0x00,0x00,0x00,0x00,0x00,0x00,0x00,0x00,
 0x00,0x00,0x00,0x00,0x00,0x00,0x00,0x00,0x00,0x00,0x00,0x00,0x00,0x00,0x00,
 0x00,0x00,0x00,0x00,0x00,0x00,0x00,0x00,0x00,0x00,0x00,0x00,0x00,0x00,0x00,
 0x00,0x00,0x00,0x00,0x00,0x00,0x00,0x00,0x00,0x00,0x00,0x00,0x00,0x00,0x00,
 0x00,0x00,0x00,0x00,0x00,0x00,0x00,0x00,0x00,0x00,0x00,0x00,0x00,0x00,0x00,
 0x00,0x00,0x00,0x00,0x00,0x00,0x00,0x00,0x00,0x00,0x00,0x00,0x00,0x00,0x00,
 0x00,0x00,0x00,0x00,0x00,0x00,0x00,0x00,0x00,0x00,0x00,0x00,0x00,0x00,0x00,
 0x00,0x00,0x00,0x00,0x00,0x00,0x00,0x00,0x00,0x00,0x00,0x00,0x00,0x00,0x00,
 0x00,0x00,0x00,0x00,0x00,0x00,0x00,0x00,0x00,0x00,0x00,0x00,0x00,0x00,0x00,
 0x00,0x00,0x00,0x00,0x00,0x00,0x00,0x00,0x00,0x00,0x00,0x00,0x00,0x00,0x00,
 0x00,0x00,0x00,0x00,0x00,0x00,0x00,0x00,0x00,0x00,0x00,0x00,0x00,0x00,0x00,
 0x00,0x00,0x00,0x00,0x00,0x00,0x00,0x00,0x00,0x00,0x00,0x00,0x00,0x00,0x00,
 0x00,0x00,0x00,0x00,0x00,0x00,0x00,0x00,0x00,0x00,0x00,0x00,0x00,0x00,0x00,
 0x00,0x00,0x00,0x00,0x00,0x00,0x00,0x00,0x00,0x00,0x00,0x00,0x00,0x00,0x00,
 0x00,0x00,0x00,0x00,0x00,0x00,0x00,0x00,0x00,0x00,0x00,0x00,0x00,0x00,0x00,
 0x00,0x00,0x00,0x00,0x00,0x00,0x00,0x00,0x00,0x00,0x00,0x00,0x00,0x00,0x00,
 0x00,0x00,0x00,0x00,0x00,0x00,0xff,0xff,0xff,0xff,0xff,0xff,0xff,0xff,0xff,
 0x00,0x00,0x80,0xff,0xff,0xff,0xff,0xff,0xff,0xff,0xff,0x3f,0x00,0x00,0x00,
 0x00,0x00,0x00,0x29,0x87,0x52,0x0a,0xa5,0x14,0x4a,0x29,0xc8,0x00,0x00,0x80,
 0xd0,0xd5,0xe1,0x95,0x42,0x29,0x84,0x52,0x33,0x00,0x00,0x00,0x00,0x00,0x00,
 0x4b,0x4b,0x6b,0x6b,0x29,0x2d,0xad,0xa5,0xa2,0x00,0x00,0x80,0x80,0x80,0x00,
 0x01,0x00,0x00,0x00,0x00,0x18,0x00,0x00,0x00,0x00,0x00,0x00,0x85,0x26,0xa5,
 0x52,0x4a,0xa1,0x94,0x42,0x9a,0x00,0x00,0x80,0x86,0xca,0x12,0x55,0xa4,0x5a,
 0x35,0x8b,0x10,0x00,0x00,0x00,0x00,0x00,0x00,0x29,0x49,0x88,0xa6,0x10,0x4a,
 0x21,0x14,0xa9,0x00,0x00,0x80,0xf0,0xe1,0x81,0x00,0x00,0x00,0x00,0x00,0x14,
 0x00,0x00,0x00,0x00,0x00,0x00,0xb5,0x1b,0x77,0x6a,0x29,0x2d,0xad,0xa5,0x95,
 0x00,0x00,0x80,0xe4,0x84,0xc0,0x41,0x20,0x10,0x10,0x08,0x14,0x00,0x00,0x00,
 0x00,0x00,0x00,0x05,0xc3,0x48,0x51,0x4a,0xa1,0x94,0x42,0xd9,0x00,0x00,0x80,
 0x00,0x12,0xaa,0x14,0x02,0x09,0x84,0x22,0x31,0x00,0x00,0x00,0x00,0x00,0x00,
 0xb5,0x34,0x13,0xa5,0x10,0x4a,0x21,0x94,0xaa,0x00,0x00,0x80,0x56,0x44,0x00,
 0x80,0x40,0x20,0x00,0x10,0x12,0x00,0x00,0x00,0x00,0x00,0x00,0xff,0xff,0xff,
 0xff,0xff,0xff,0xff,0xff,0xff,0x00,0x00,0x80,0xff,0xff,0xff,0xff,0xff,0xff,
 0xff,0xff,0x3f,0x00,0x00,0x00,0x00,0x00,0x00,0x85,0x54,0x08,0x69,0x29,0x2d,
 0xad,0xa5,0xa9,0x00,0x00,0x80,0x00,0x00,0xa1,0x14,0x02,0x09,0x84,0x82,0x10,
 0x00,0x00,0x00,0x00,0x00,0x00,0x29,0x83,0x6a,0x06,0x92,0x40,0x12,0x48,0xc2,
 0x00,0x00,0x80,0xd0,0x51,0x41,0x41,0xa0,0x50,0x30,0x08,0x04,0x00,0x00,0x00,
 0x00,0x00,0x00,0x4b,0xb6,0x87,0x6b,0x29,0x2d,0xad,0x95,0xa5,0x00,0x00,0x80,
 0x80,0x40,0x4d,0x03,0x04,0x02,0x01,0x41,0x00,0x00,0x00,0x00,0x00,0x00,0x00,
 0xa5,0xa8,0x2a,0x0b,0x45,0x92,0x40,0x5a,0x94,0x00,0x00,0x80,0xa6,0xc8,0x80,
 0x90,0x40,0x28,0x04,0x12,0x28,0x00,0x00,0x00,0x00,0x00,0x00,0xab,0x35,0x27,
 0x07,0x09,0x24,0x89,0x9a,0xa2,0x00,0x00,0x80,0x82,0x65,0x01,0x52,0x24,0x1a,
 0x15,0x0b,0x05,0x00,0x00,0x00,0x00,0x00,0x00,0x35,0x5b,0x6a,0x6a,0xd1,0xd2,
 0x52,0x24,0xaa,0x00,0x00,0x80,0xe4,0x84,0xd2,0x01,0x80,0x40,0x20,0x40,0x10,
 0x00,0x00,0x00,0x00,0x00,0x00,0x41,0x83,0x94,0x52,0x16,0x0a,0x24,0x59,0xc4,
 0x00,0x00,0x80,0x00,0x4a,0x00,0x24,0x02,0x09,0x84,0x02,0x00,0x00,0x00,0x00,
 0x00,0x00,0x00,0x4b,0x34,0xa3,0xa8,0xa0,0xd4,0x52,0x2a,0x99,0x00,0x00,0x80,
 0x96,0x80,0x20,0x09,0x20,0x10,0x10,0x28,0x14,0x00,0x00,0x00,0x00,0x00,0x00,
 0xff,0xff,0xff,0xff,0xff,0xff,0xff,0xff,0xff,0x00,0x00,0x80,0xff,0xff,0xff,
 0xff,0xff,0xff,0xff,0xff,0x3f,0x00,0x00,0x00,0x00,0x00,0x00,0x01,0x01,0x03,
 0x00,0x00,0x00,0x00,0x00,0x80,0x00,0x00,0x80,0xca,0xd6,0xad,0x4a,0x5a,0x5a,
 0x4a,0x4b,0x1b,0x00,0x00,0x00,0x00,0x00,0x00,0x51,0x02,0x48,0x40,0x10,0x12,
 0x00,0x48,0x91,0x00,0x00,0x80,0x96,0x65,0x55,0x95,0x94,0x95,0x85,0x88,0x32,
 0x00,0x00,0x00,0x00,0x00,0x00,0x05,0xaa,0x02,0x11,0x00,0x00,0x55,0x02,0x84,
 0x00,0x00,0x80,0x62,0x4b,0xa3,0x2d,0x2a,0x2a,0x28,0x33,0x15,0x00,0x00,0x00,
 0x00,0x00,0x00,0x11,0x12,0x80,0x24,0x02,0x01,0x00,0x40,0x88,0x00,0x00,0x80,
 0x49,0xd1,0xd3,0x4a,0x5a,0xa6,0xb2,0x50,0x30,0x00,0x00,0x00,0x00,0x00,0x00,
 0x81,0x42,0x08,0x00,0x10,0xa0,0x20,0x14,0x82,0x00,0x00,0x80,0x52,0xe5,0x91,
 0x92,0x95,0x28,0x84,0x8a,0x1a,0x00,0x00,0x00,0x00,0x00,0x00,0x25,0x15,0x03,
 0x52,0x04,0x04,0x02,0x00,0x90,0x00,0x00,0x80,0xe8,0x95,0xd2,0xa5,0x22,0x42,
 0x2a,0x33,0x33,0x00,0x00,0x00,0x00,0x00,0x00,0x01,0x20,0x90,0x00,0x01,0x49,
 0x48,0x42,0xc1,0x00,0x00,0x80,0x51,0x2a,0x2d,0x91,0x49,0x9a,0xb2,0x4a,0x15,
 0x00,0x00,0x00,0x00,0x00,0x00,0xff,0xff,0xff,0xff,0xff,0xff,0xff,0xff,0xff,
 0x00,0x00,0x80,0xff,0xff,0xff,0xff,0xff,0xff,0xff,0xff,0x3f,0x00,0x00,0x00,
 0x00,0x00,0x00,0xff,0xff,0xff,0xff,0xff,0xff,0xff,0xff,0xff,0x00,0x00,0x80,
 0xff,0xff,0xff,0xff,0xff,0xff,0xff,0xff,0x3f,0x00,0x00,0x00,0x00,0x00,0x00,
 0x41,0x00,0x40,0x00,0x00,0x08,0x20,0x44,0x82,0x00,0x00,0x80,0xc0,0x00,0x00,
 0x00,0x00,0x00,0x00,0x00,0x14,0x00,0x00,0x00,0x00,0x00,0x00,0x15,0x45,0x13,
 0x69,0x29,0x22,0x02,0x00,0xd0,0x00,0x00,0x80,0x20,0x21,0x21,0x01,0x80,0x92,
 0x02,0x02,0x15,0x00,0x00,0x00,0x00,0x00,0x00,0x89,0x20,0x88,0x04,0x0a,0x11,
 0x04,0x04,0x80,0x00,0x00,0x80,0xc8,0x01,0x44,0x02,0x21,0x28,0x01,0x24,0x1c,
 0x00,0x00,0x00,0x00,0x00,0x00,0x81,0x0b,0x20,0x92,0x20,0x44,0x91,0x41,0x94,
 0x00,0x00,0x80,0x40,0x21,0x90,0x90,0x00,0x00,0x08,0x90,0x14,0x00,0x00,0x00,
 0x00,0x00,0x00,0x45,0x54,0x45,0x00,0x00,0x11,0x00,0x08,0xc1,0x00,0x00,0x80,
 0x20,0x0d,0x01,0x00,0x28,0x49,0x22,0x00,0x14,0x00,0x00,0x00,0x00,0x00,0x00,
 0x11,0x11,0x10,0xa6,0x48,0x00,0xa2,0x92,0x88,0x00,0x00,0x80,0xc2,0x04,0x24,
 0x0a,0x01,0x00,0x80,0x04,0x14,0x00,0x00,0x00,0x00,0x00,0x00,0x01,0x08,0x20,
 0x65,0x54,0x8a,0x84,0x22,0x80,0x00,0x00,0x80,0x00,0x91,0x00,0x08,0x01,0x40,
 0x44,0x00,0x1c,0x00,0x00,0x00,0x00,0x00,0x00,0xff,0xff,0xff,0xff,0xff,0xff,
 0xff,0xff,0xff,0x00,0x00,0x80,0xff,0xff,0xff,0xff,0xff,0xff,0xff,0xff,0x3f,
 0x00,0x00,0x00,0x00,0x00,0x00,0x00,0x00,0x00,0x00,0x00,0x00,0x00,0x00,0x00,
 0x00,0x00,0x00,0x00,0x00,0x00,0x00,0x00,0x00,0x00,0x00,0x00,0x00,0x00,0x00,
 0x00,0x00,0x00,0x00,0x00,0x00,0x00,0x00,0x00,0x00,0x00,0x00,0x00,0x00,0x00,
 0x00,0x00,0x00,0x00,0x00,0x00,0x00,0x00,0x00,0x00,0x00,0x00,0x00,0x00,0x00
 };
