#define next_width 28
#define next_height 18
static unsigned char next_bits[] = {
   0x00, 0x00, 0x00, 0x00, 0x00, 0x00, 0x00, 0x00, 0x00, 0xc0, 0xff, 0x00,
   0x00, 0xc0, 0xff, 0x01, 0x00, 0xc0, 0xff, 0x01, 0x00, 0x00, 0xc0, 0x01,
   0x00, 0x00, 0x80, 0x01, 0x00, 0x40, 0x80, 0x01, 0x00, 0x60, 0x80, 0x01,
   0x38, 0x70, 0xc0, 0x01, 0x7c, 0xf8, 0xff, 0x01, 0x7c, 0xfc, 0xff, 0x01,
   0x7c, 0xf8, 0xff, 0x00, 0x38, 0x70, 0x00, 0x00, 0x00, 0x60, 0x00, 0x00,
   0x00, 0x40, 0x00, 0x00, 0x00, 0x00, 0x00, 0x00, 0x00, 0x00, 0x00, 0x00};
