#define next_width 28
#define next_height 18
static unsigned char next_bits[] = {
   0x00, 0x00, 0x00, 0x00, 0x00, 0x00, 0x00, 0x00, 0x00, 0x00, 0x00, 0x00,
   0x00, 0x80, 0xff, 0x01, 0x00, 0x80, 0xff, 0x03, 0x00, 0x80, 0xff, 0x03,
   0x00, 0x00, 0x80, 0x03, 0x00, 0x00, 0x00, 0x03, 0x00, 0x80, 0x00, 0x03,
   0x00, 0xc0, 0x00, 0x03, 0x70, 0xe0, 0x80, 0x03, 0xf8, 0xf0, 0xff, 0x03,
   0xf8, 0xf8, 0xff, 0x03, 0xf8, 0xf0, 0xff, 0x01, 0x70, 0xe0, 0x00, 0x00,
   0x00, 0xc0, 0x00, 0x00, 0x00, 0x80, 0x00, 0x00, 0x00, 0x00, 0x00, 0x00};
