#define stop_width 28
#define stop_height 18
static unsigned char stop_bits[] = {
   0x00, 0x00, 0x00, 0x00, 0x00, 0x00, 0x00, 0x00, 0x00, 0x00, 0x00, 0x00,
   0x00, 0x00, 0x00, 0x00, 0x00, 0x00, 0x00, 0x00, 0x00, 0x38, 0x0e, 0x00,
   0x00, 0x38, 0x0e, 0x00, 0x00, 0x38, 0x0e, 0x00, 0x00, 0x38, 0x0e, 0x00,
   0x00, 0x38, 0x0e, 0x00, 0x00, 0x38, 0x0e, 0x00, 0x00, 0x38, 0x0e, 0x00,
   0x00, 0x38, 0x0e, 0x00, 0x00, 0x38, 0x0e, 0x00, 0x00, 0x00, 0x00, 0x00,
   0x00, 0x00, 0x00, 0x00, 0x00, 0x00, 0x00, 0x00, 0x00, 0x00, 0x00, 0x00};
